# xmcd
#
# Track frame offsets:
#	150
#	12090
#	27976
#	40137
#	57408
#	76021
#	90945
#	104543
#	128619
#	147071
#	164022
#	185091
#	196927
#	211373
#	227496
#	244792
#	259966
#	282453
#	310797
#	328404
#
# Disc length: 4652 seconds
#
# Revision: 4
# Processed by: cddbd v1.5.2PL0 Copyright (c) Steve Scherf et al.
# Submitted via: audiograbber 1.83.01
#
DISCID=17122a14
DTITLE=The Cats - 100 [CD 1)
DYEAR=2008
DGENRE=Pop
TTITLE0=What A Crazy Life [mono]
TTITLE1=Let's Dance
TTITLE2=Magical Mystery Morning
TTITLE3=Lea
TTITLE4=Marian
TTITLE5=Times Were When
TTITLE6=Be My Day
TTITLE7=Where Have I Been Wrong
TTITLE8=Why
TTITLE9=One Way Wind
TTITLE10=There Has Been A Time
TTITLE11=Come Sunday
TTITLE12=Maribaja
TTITLE13=Vaya Con Dios
TTITLE14=Let's Go Together
TTITLE15=Scarlet Ribbons
TTITLE16=Rock and Roll (I Gave You The Best Years Of My Life)
TTITLE17=Mississippi
TTITLE18=If You'll Be My Woman
TTITLE19=The End Of The Show
EXTD=
EXTT0=
EXTT1=
EXTT2=
EXTT3=
EXTT4=
EXTT5=
EXTT6=
EXTT7=
EXTT8=
EXTT9=
EXTT10=
EXTT11=
EXTT12=
EXTT13=
EXTT14=
EXTT15=
EXTT16=
EXTT17=
EXTT18=
EXTT19=
PLAYORDER=
